<?xml version="1.0" encoding="utf-8"?>
<!-- Generator: Adobe Illustrator 25.4.1, SVG Export Plug-In . SVG Version: 6.00 Build 0)  -->
<svg version="1.1" id="Ñëîé_1" xmlns="http://www.w3.org/2000/svg" xmlns:xlink="http://www.w3.org/1999/xlink" x="0px" y="0px"
	 viewBox="0 0 3255.61 1776.21" style="enable-background:new 0 0 3255.61 1776.21;" xml:space="preserve">
<style type="text/css">
	.st0{fill:#333333;}
	.st1{fill:#334BA0;}
	.st2{fill:#1D326D;}
	.st3{fill:#5570BC;}
	.st4{fill:#FF7BAB;}
	.st5{fill:#666666;}
	.st6{fill:#FCFCFC;}
</style>
<g>
	<g>
		<path class="st0" d="M3175.83,1736.63c-11.44,0-22-0.13-32.04-0.62c-4.41-0.21-7.82-3.97-7.6-8.38s3.97-7.84,8.38-7.6
			c15.34,0.75,32.21,0.64,51.75,0.51c2.8-0.02,5.65-0.04,8.56-0.05c-25.21-27.77-45.72-58.63-61.05-91.87
			c-16.27-35.28-26.39-72.53-30.08-110.71c-3.68-38-0.9-75.97,8.26-112.86c9.34-37.62,25.1-73.23,46.86-105.85
			c2.45-3.67,7.42-4.67,11.09-2.22c3.68,2.45,4.67,7.42,2.22,11.09c-84.7,126.99-67.73,295.12,41.28,408.88
			c2.83,2.95,3.59,7.15,1.97,10.95c-2.03,4.78-7.93,8.53-13.44,8.55c-5.39,0.02-10.58,0.05-15.58,0.09
			C3189.22,1736.58,3182.38,1736.63,3175.83,1736.63z"/>
		<path class="st0" d="M2632.1,1736.8c-7.97,0-16.25-0.08-25.23-0.16c-7.93-0.08-16.13-0.15-25.08-0.19
			c-5.36-0.02-9.97-3.31-11.73-8.37c-1.76-5.06-0.19-10.5,4-13.84c25.62-20.44,51.38-39.13,76.29-57.21
			c92.14-66.86,171.71-124.59,188.08-229.7c0.68-4.37,4.77-7.36,9.14-6.67c4.37,0.68,7.35,4.77,6.67,9.14
			c-7.98,51.23-29.96,94.77-69.16,137.04c-34.63,37.33-78.69,69.3-125.33,103.15c-22.2,16.11-45.07,32.7-67.82,50.52
			c5.21,0.04,10.2,0.08,15.09,0.13c15.78,0.15,29.4,0.28,42.85-0.01c0.06,0,0.12,0,0.17,0c4.34,0,7.9,3.47,7.99,7.83
			c0.09,4.42-3.41,8.07-7.83,8.17C2644.25,1736.75,2638.27,1736.8,2632.1,1736.8z"/>
		<g>
			<path class="st0" d="M2571.7,1059.56c-3.34,0-6.46-2.11-7.58-5.45c-87.24-259.42-256.73-392.32-350-448.45
				c-3.79-2.28-5.01-7.19-2.73-10.98c2.28-3.79,7.19-5.01,10.98-2.73c73.06,43.97,142.24,104.02,200.05,173.66
				c68.66,82.7,121.44,178.05,156.86,283.4c1.41,4.19-0.84,8.72-5.03,10.13C2573.41,1059.43,2572.55,1059.56,2571.7,1059.56z"/>
			<g>
				<path class="st0" d="M2218.24,606.81c-3.55,0-6.79-2.38-7.73-5.97c-10.73-40.91-13.47-49.4-22.57-77.52l-1.14-3.53
					c-1.36-4.2,0.95-8.71,5.15-10.07c4.21-1.36,8.71,0.95,10.07,5.15l1.14,3.52c9.21,28.46,11.99,37.04,22.83,78.39
					c1.12,4.27-1.44,8.65-5.71,9.77C2219.59,606.72,2218.91,606.81,2218.24,606.81z"/>
				<path class="st0" d="M2218.24,606.81c-1.48,0-2.98-0.41-4.32-1.27c-31.32-20.12-40.43-26.53-67.21-45.65
					c-3.6-2.57-4.43-7.56-1.86-11.16c2.57-3.6,7.56-4.43,11.16-1.86c26.53,18.94,35.55,25.29,66.56,45.21
					c3.72,2.39,4.79,7.34,2.41,11.05C2223.45,605.51,2220.87,606.81,2218.24,606.81z"/>
				<path class="st0" d="M2132.28,619.47c-3.96,0-7.4-2.94-7.92-6.98c-0.57-4.38,2.53-8.39,6.91-8.96c3.78-0.49,7.34-0.94,10.8-1.38
					c21.01-2.67,37.61-4.77,74.81-11.23c4.36-0.75,8.5,2.16,9.25,6.51c0.76,4.35-2.16,8.49-6.51,9.25
					c-37.56,6.52-55.15,8.75-75.53,11.34c-3.45,0.44-7,0.89-10.77,1.38C2132.97,619.45,2132.62,619.47,2132.28,619.47z"/>
			</g>
		</g>
		<g>
			<path class="st0" d="M3045.2,807.86c-3.99,0-7.44-2.98-7.93-7.04c-29.76-246.79-131.57-417.73-216.95-539.08
				c-2.54-3.61-1.67-8.6,1.94-11.15c3.62-2.54,8.6-1.67,11.15,1.94c86.45,122.88,189.56,296.03,219.75,546.37
				c0.53,4.39-2.6,8.37-6.98,8.9C3045.84,807.84,3045.52,807.86,3045.2,807.86z"/>
			<g>
				<path class="st0" d="M2833.89,273.69c-0.16,0-0.31,0-0.47-0.01c-4.41-0.26-7.78-4.04-7.52-8.45c2.44-42.22,2.46-51.14,2.5-80.7
					l0-3.71c0.01-4.41,3.59-7.99,8-7.99c0,0,0.01,0,0.01,0c4.42,0.01,8,3.59,7.99,8.01l0,3.71c-0.04,29.91-0.05,38.93-2.52,81.6
					C2841.62,270.41,2838.1,273.69,2833.89,273.69z"/>
				<path class="st0" d="M2833.89,273.69c-2.32,0-4.62-1-6.2-2.94c-23.57-28.82-30.25-37.73-49.8-64.19
					c-2.63-3.55-1.87-8.56,1.68-11.19c3.55-2.63,8.56-1.87,11.19,1.68c19.37,26.22,26,35.04,49.32,63.57
					c2.8,3.42,2.29,8.46-1.13,11.26C2837.46,273.1,2835.67,273.69,2833.89,273.69z"/>
				<path class="st0" d="M2833.89,273.69c-0.38,0-0.76-0.03-1.15-0.08c-37.73-5.41-55.15-8.73-75.33-12.56
					c-3.42-0.65-6.94-1.32-10.67-2.02c-4.34-0.82-7.2-5-6.38-9.34s5-7.2,9.34-6.38c3.75,0.7,7.28,1.38,10.71,2.03
					c20.81,3.96,37.24,7.08,74.61,12.44c4.37,0.63,7.41,4.68,6.78,9.05C2841.23,270.82,2837.81,273.69,2833.89,273.69z"/>
			</g>
		</g>
	</g>
	<g>
		<path class="st1" d="M3215.09,1191.52c-12.47,104.71-81.79,185.16-175.21,226.33c-0.1,0.04-0.2,0.09-0.3,0.13
			c-1.12,0.5-2.25,0.98-3.38,1.46c-1.87,0.81-3.75,1.59-5.64,2.36c-1.18,0.48-2.36,0.95-3.55,1.42c-1.09,0.43-2.18,0.85-3.27,1.26
			c-1.74,0.67-3.49,1.32-5.25,1.96c-0.86,0.31-1.72,0.62-2.58,0.93c-1.98,0.71-3.98,1.4-5.99,2.06c-1.92,0.64-3.84,1.27-5.77,1.88
			c-0.97,0.31-1.94,0.61-2.91,0.9c-0.97,0.3-1.94,0.59-2.91,0.88c-0.97,0.3-1.95,0.59-2.93,0.86c-0.98,0.28-1.96,0.55-2.94,0.83
			c-0.98,0.27-1.96,0.55-2.95,0.81c-2.95,0.79-5.92,1.55-8.91,2.28c-0.94,0.22-1.88,0.45-2.83,0.67c-2.1,0.5-4.2,0.97-6.31,1.42
			c-0.77,0.17-1.54,0.33-2.31,0.49c-0.45,0.1-0.89,0.19-1.34,0.28c-0.75,0.15-1.5,0.3-2.25,0.45c-24.81,4.92-48.5,5.13-71.08,1.44
			c-1.46-0.24-2.91-0.5-4.36-0.77c-0.28-0.04-0.55-0.1-0.83-0.15c-1.56-0.3-3.11-0.61-4.66-0.95c-1.29-0.28-2.58-0.58-3.86-0.88
			c-2.82-0.67-5.62-1.4-8.41-2.19c-0.93-0.26-1.86-0.53-2.78-0.82c-1.92-0.57-3.83-1.17-5.73-1.8c-7.05-2.33-13.97-5.04-20.78-8.09
			c-1.14-0.51-2.28-1.04-3.42-1.57c-2.25-1.05-4.48-2.14-6.7-3.27c-1.33-0.68-2.66-1.37-3.99-2.07c-2.24-1.19-4.46-2.42-6.67-3.68
			c-0.83-0.47-1.66-0.95-2.49-1.44c-4.82-2.82-9.57-5.81-14.26-8.96c-1.27-0.85-2.53-1.72-3.79-2.59c-0.01,0-0.01-0.01-0.01-0.01
			c-1.26-0.88-2.52-1.76-3.77-2.66c-5.65-4.06-11.2-8.35-16.65-12.84c-1.86-1.53-3.71-3.09-5.55-4.69
			c-1.12-0.95-2.23-1.92-3.34-2.89c-4.8-4.23-9.53-8.62-14.17-13.16c-99.6-97.1-164.6-260.12-197.16-342.12
			c-0.76-1.91-1.52-3.85-2.31-5.84c-0.38-0.97-0.77-1.96-1.16-2.95c-61.95-158.12-189.37-539.09-120.81-760.58
			c0.44-1.43,0.89-2.85,1.35-4.26c0.4-1.24,0.8-2.47,1.22-3.69c0.1-0.3,0.2-0.6,0.3-0.9c0.43-1.28,0.88-2.55,1.33-3.82
			c0.34-0.98,0.69-1.95,1.05-2.92c0.56-1.52,1.12-3.04,1.69-4.54c0.3-0.76,0.59-1.51,0.89-2.25c0.4-1.05,0.82-2.09,1.24-3.13
			c0.33-0.82,0.66-1.62,1-2.43c0.93-2.25,1.89-4.47,2.88-6.67c7.84-17.15,19.61-32.31,34.79-43.53
			c9.09-6.71,18.99-11.88,29.99-15.61c0.74-0.24,1.49-0.48,2.23-0.72c6.42-2.03,12.93-3.5,19.48-4.41
			c46.65-6.51,95.47,14.98,128.29,60.29c27.4,37.82,42.29,83.36,50.65,104.69C2888.34,763.32,3253.68,867.64,3215.09,1191.52z"/>
		<g>
			<path class="st1" d="M2507.03,164.75c30.58-12.72,64.26-12.19,95.62,1.05l7.48,3.39c-5.45-57.74-25.25-13.78-25.32-110.41
				c0-0.58-0.49-1.05-1.07-1c-10.22,0.75-68.75,6.1-80.54,7.11c-0.53,0.05-0.93,0.51-0.91,1.04c3.53,97.17-17.49,49.7-16.18,110.46
				C2492.64,172.29,2499.98,167.68,2507.03,164.75z"/>
			<path class="st0" d="M2478.41,190.66l-0.3-14.09c-0.58-27.07,2.98-34.73,8.47-43.32c4.5-7.03,9.6-14.99,7.71-67.02
				c-0.17-4.81,3.44-8.89,8.22-9.3c4.07-0.35,13.71-1.22,25.02-2.23c21.77-1.95,48.87-4.39,55.62-4.89
				c2.47-0.19,4.95,0.68,6.78,2.38c1.83,1.7,2.88,4.1,2.88,6.6c0.04,53.35,5.99,61.14,11.74,68.68
				c5.17,6.77,11.04,14.45,13.54,40.98l1.3,13.74l-19.95-9.06c-29.4-12.38-61.12-12.73-89.34-0.99
				c-6.39,2.66-13.42,7.07-19.62,10.96L2478.41,190.66z M2510.49,72.28c1.36,51.17-4.63,60.53-10.43,69.59
				c-2.66,4.16-5.04,7.88-5.78,20.26c3.18-1.77,6.43-3.41,9.68-4.76l0,0c30.48-12.68,64.45-13.03,96.3-1.13
				c-2.2-10.93-5.24-14.91-8.42-19.07c-8.62-11.28-14.41-22.58-14.98-70.79c-11.28,0.96-31.16,2.75-47.89,4.25
				C2521.81,71.27,2515.33,71.85,2510.49,72.28z"/>
		</g>
		<path class="st2" d="M3039.88,1417.85c-0.1,0.04-0.2,0.09-0.3,0.13c-1.12,0.5-2.25,0.98-3.38,1.46c-1.87,0.81-3.75,1.59-5.64,2.36
			c-1.18,0.48-2.36,0.95-3.55,1.42c-1.09,0.43-2.18,0.85-3.27,1.26c-1.74,0.67-3.49,1.32-5.25,1.96c-0.86,0.31-1.72,0.62-2.58,0.93
			c-1.98,0.71-3.98,1.4-5.99,2.06c-1.92,0.64-3.84,1.27-5.77,1.88c-0.97,0.31-1.94,0.61-2.91,0.9c-0.97,0.3-1.94,0.59-2.91,0.88
			c-0.97,0.3-1.95,0.59-2.93,0.86c-0.98,0.28-1.96,0.55-2.94,0.83c-0.98,0.27-1.96,0.55-2.95,0.81c-2.95,0.8-5.92,1.56-8.91,2.28
			c-0.94,0.22-1.88,0.45-2.83,0.67c-2.1,0.5-4.2,0.97-6.31,1.42c-0.77,0.17-1.54,0.33-2.31,0.49c-0.45,0.1-0.89,0.19-1.34,0.28
			c-0.75,0.16-1.5,0.31-2.25,0.46c-24.81,4.92-48.5,5.13-71.08,1.43c-1.46-0.24-2.91-0.5-4.36-0.77c-0.28-0.04-0.55-0.1-0.83-0.15
			c-1.56-0.3-3.11-0.61-4.66-0.95c-1.29-0.28-2.58-0.58-3.86-0.88c-2.82-0.67-5.62-1.4-8.41-2.19c-0.93-0.26-1.86-0.53-2.78-0.82
			c-1.92-0.56-3.83-1.17-5.73-1.8c-7.05-2.33-13.97-5.04-20.78-8.09c-1.14-0.51-2.28-1.04-3.42-1.57c-2.25-1.05-4.48-2.14-6.7-3.27
			c-1.33-0.68-2.66-1.37-3.99-2.07c-2.24-1.19-4.46-2.42-6.67-3.68c-0.83-0.47-1.66-0.95-2.49-1.44c-4.82-2.82-9.57-5.81-14.26-8.96
			c-1.27-0.85-2.53-1.72-3.79-2.59c-0.01,0-0.01-0.01-0.01-0.01c-1.26-0.88-2.52-1.76-3.77-2.66c-5.65-4.06-11.2-8.35-16.65-12.84
			c-1.86-1.53-3.71-3.09-5.55-4.69c-1.12-0.95-2.23-1.92-3.34-2.89c-4.8-4.23-9.53-8.62-14.17-13.16
			c-99.6-97.1-164.6-260.12-197.16-342.12c-0.76-1.91-1.52-3.85-2.31-5.84c-0.38-0.97-0.77-1.96-1.16-2.95
			c-60.17-154.55-178.5-534.53-120.81-760.58c0.44-1.43,0.89-2.85,1.35-4.26c0.4-1.24,0.8-2.47,1.22-3.69c0.1-0.3,0.2-0.6,0.3-0.9
			c0.43-1.28,0.88-2.55,1.33-3.82c0.34-0.98,0.69-1.95,1.05-2.92c0.56-1.52,1.12-3.04,1.69-4.54c0.3-0.76,0.59-1.51,0.89-2.25
			c0.4-1.05,0.82-2.09,1.24-3.13c0.33-0.81,0.66-1.63,1-2.43c0.93-2.25,1.89-4.47,2.88-6.67c7.84-17.15,19.61-32.31,34.79-43.53
			c9.09-6.71,18.99-11.88,29.99-15.61c0.74-0.24,1.49-0.48,2.23-0.72c6.42-2.03,12.93-3.5,19.48-4.41
			c-36.88,23.18-57.41,36.49-71.96,129.62C2408.65,642.56,2668.09,1449.41,3039.88,1417.85z"/>
		<path class="st0" d="M2925.77,1453.14c-12.46,0-24.82-1.13-37-3.41c-0.23-0.04-0.46-0.08-0.7-0.12l-0.29-0.05
			c-5.9-1.13-11.82-2.54-17.6-4.18c-0.96-0.27-1.96-0.56-2.95-0.87c-1.98-0.59-3.97-1.21-5.9-1.86c-7.13-2.36-14.38-5.18-21.53-8.38
			c-1.1-0.49-2.19-1-3.29-1.51l-0.22-0.1c-2.28-1.06-4.62-2.2-6.96-3.4c-1.37-0.7-2.73-1.41-4.09-2.12
			c-2.2-1.17-4.45-2.41-6.91-3.81c-0.85-0.48-1.72-0.98-2.59-1.5c-4.86-2.84-9.79-5.94-14.66-9.21c-0.61-0.4-1.21-0.82-1.82-1.23
			h-5.51l0-3.85c-0.15-0.11-0.3-0.22-0.45-0.32c-5.67-4.07-11.41-8.5-17.06-13.16c-1.57-1.3-3.63-3.02-5.71-4.83
			c-1.08-0.91-2.22-1.91-3.36-2.91c-4.83-4.26-9.7-8.78-14.49-13.46c-101.26-98.71-167.28-264.98-199.01-344.89l-2.31-5.84
			c-21.62-54.94-75.63-199.77-110.3-358.03c-38.23-174.55-42.23-312.77-11.88-410.82c3.65-11.8,7.86-23.17,12.52-33.79
			c8.6-19.61,21.78-36.35,38.11-48.42c10.5-7.76,21.81-13.49,34.56-17.52c6.8-2.15,13.8-3.73,20.79-4.71
			c24.69-3.45,50.21,0.49,73.79,11.37c23.9,11.03,45.37,29.07,62.08,52.15c24.14,33.33,38.88,72.63,47.69,96.12
			c1.48,3.96,2.76,7.37,3.93,10.34c77.68,198.1,193.57,327.05,295.82,440.82c60.81,67.66,118.25,131.57,156.54,199.6
			c42.69,75.85,57.95,149.95,48.03,233.22h0c-6.23,52.34-26.06,99.79-58.94,141.03c-30.83,38.67-72.67,70.38-120.99,91.67
			l-0.19,0.08c-0.06,0.03-0.12,0.05-0.18,0.08c-1.09,0.49-2.19,0.96-3.29,1.42l-0.11,0.05c-1.7,0.74-3.54,1.51-5.76,2.41
			c-1.21,0.49-2.41,0.97-3.63,1.45c-1.13,0.45-2.26,0.88-3.4,1.31c-1.72,0.66-3.52,1.33-5.33,1.99l-2.6,0.94
			c-2.14,0.77-4.23,1.49-6.21,2.14c-1.92,0.64-3.88,1.28-5.85,1.91l-2.96,0.92c-0.99,0.31-1.99,0.6-2.98,0.9
			c-0.97,0.3-2.03,0.62-3.09,0.91l-2.87,0.81c-4,1.11-8.07,2.17-12.17,3.17l-1.31,0.31c-0.53,0.13-1.07,0.26-1.61,0.38
			c-2.01,0.48-4.13,0.96-6.44,1.45c-0.73,0.16-1.51,0.32-2.29,0.49c-0.49,0.11-0.97,0.21-1.46,0.3l-2.25,0.45
			C2953.29,1451.77,2939.47,1453.14,2925.77,1453.14z M2890.8,1433.84l0.79,0.14c23.6,4.42,47.96,4.2,72.41-0.65l2.23-0.45
			c0.4-0.08,0.79-0.16,1.18-0.25l0.1-0.02c0.74-0.15,1.48-0.31,2.22-0.47c2.24-0.48,4.25-0.93,6.18-1.39
			c0.55-0.13,1.05-0.25,1.55-0.37l1.31-0.31c3.86-0.94,7.76-1.96,11.54-3.01l2.89-0.82c0.97-0.27,1.87-0.53,2.76-0.81
			c1.02-0.31,1.97-0.59,2.91-0.88l2.9-0.9c1.85-0.58,3.73-1.2,5.61-1.83c1.88-0.62,3.83-1.29,5.82-2l2.57-0.93
			c1.69-0.61,3.39-1.25,5.08-1.9c1.11-0.42,2.16-0.82,3.21-1.24c1.17-0.46,2.32-0.92,3.47-1.39c1.84-0.75,3.66-1.51,5.48-2.29
			l0.16-0.07c1.05-0.45,2.1-0.89,3.14-1.36l0.24-0.1c0.06-0.03,0.12-0.05,0.18-0.08c96.73-42.66,158.85-122.82,170.41-219.92l0,0
			c20.73-173.99-76.93-282.65-200.58-420.23c-103.16-114.78-220.08-244.87-298.82-445.68c-1.21-3.08-2.51-6.55-4.01-10.57
			c-8.52-22.73-22.79-60.77-45.67-92.35c-30.44-42.03-75.57-63.36-120.71-57.06c-6.11,0.85-12.23,2.23-18.17,4.11
			c-11.05,3.49-20.82,8.44-29.88,15.14c-14.09,10.41-25.48,24.92-32.96,41.98c-4.41,10.06-8.41,20.86-11.89,32.09
			c-29.52,95.38-25.41,230.85,12.22,402.66c34.42,157.13,88.08,301.01,109.55,355.57l2.3,5.81
			c31.32,78.88,96.49,243.01,195.31,339.35c4.6,4.5,9.27,8.83,13.87,12.89c1.06,0.92,2.14,1.87,3.23,2.79
			c2.02,1.76,3.99,3.39,5.48,4.63c5.37,4.42,10.83,8.63,16.22,12.5c1.23,0.88,2.45,1.74,3.68,2.6l0.28,0.19
			c1.13,0.78,2.25,1.56,3.39,2.32c4.6,3.09,9.26,6.02,13.85,8.71c0.81,0.48,1.6,0.94,2.39,1.38c2.33,1.33,4.45,2.5,6.48,3.58
			c1.28,0.67,2.58,1.35,3.88,2.01c2.17,1.11,4.34,2.17,6.44,3.14l0.21,0.1c1.03,0.48,2.06,0.96,3.1,1.42
			c6.66,2.98,13.4,5.61,20.02,7.8c1.81,0.6,3.65,1.18,5.5,1.73l0.12,0.04c0.84,0.26,1.68,0.51,2.53,0.75
			C2879.88,1431.5,2885.35,1432.8,2890.8,1433.84L2890.8,1433.84z"/>
		<g>
			<path class="st3" d="M2537.05,637.94c-3.19,0-6.2-1.92-7.44-5.07c-48.85-123.92-60.73-283.1-30.25-405.54
				c1.07-4.29,5.41-6.9,9.7-5.83c4.29,1.07,6.9,5.41,5.83,9.7c-29.72,119.42-18.1,274.79,29.61,395.81
				c1.62,4.11-0.4,8.76-4.51,10.38C2539.01,637.76,2538.02,637.94,2537.05,637.94z"/>
			<path class="st3" d="M2617.29,560.56c-3.2,0-6.22-1.93-7.45-5.09c-23.81-61.02-39.29-104.75-47.9-147.7
				c-8.27-41.26-10.66-82.3-12.38-148.28c-0.12-4.42,3.37-8.09,7.79-8.21c4.43-0.08,8.09,3.37,8.21,7.79
				c3.29,126.36,7.97,159.35,59.19,290.58c1.61,4.12-0.43,8.75-4.54,10.36C2619.24,560.38,2618.25,560.56,2617.29,560.56z"/>
			<path class="st3" d="M2961.78,1365.93c-1.92,0-3.85-0.69-5.38-2.08c-4.75-4.32-9.38-8.53-13.9-12.63
				c-106.12-96.4-150.05-136.3-219.12-266.33c-2.07-3.9-0.59-8.75,3.31-10.82c3.9-2.07,8.74-0.59,10.82,3.31
				c67.76,127.56,111.09,166.92,215.75,262c4.52,4.11,9.15,8.31,13.91,12.64c3.27,2.97,3.51,8.03,0.54,11.3
				C2966.12,1365.04,2963.95,1365.93,2961.78,1365.93z"/>
			<path class="st3" d="M3076.11,1301.59c-1.78,0-3.57-0.59-5.05-1.8c-121.14-98.8-158.41-152.85-220.34-261.44
				c-2.19-3.84-0.85-8.72,2.99-10.91c3.84-2.19,8.72-0.85,10.91,2.99c62.18,109.03,96.96,159.42,216.55,256.97
				c3.42,2.79,3.94,7.83,1.14,11.26C3080.73,1300.59,3078.43,1301.59,3076.11,1301.59z"/>
		</g>
	</g>
	<g>
		<g>
			
				<ellipse transform="matrix(0.8922 -0.4516 0.4516 0.8922 -137.5267 1287.277)" class="st4" cx="2628.15" cy="931.76" rx="32.92" ry="13.84"/>
			
				<ellipse transform="matrix(0.8922 -0.4516 0.4516 0.8922 -50.2291 1390.3267)" class="st4" cx="2887.7" cy="800.4" rx="32.92" ry="13.84"/>
		</g>
		<path class="st0" d="M2717.43,942.27c-4.18,0-7.69-3.24-7.97-7.47c-0.29-4.41,3.04-8.22,7.45-8.51
			c28.65-1.91,59.67-19.52,75.45-42.82c8.04-11.88,15.98-31.11,8.12-55.28c-1.37-4.2,0.93-8.72,5.14-10.08
			c4.2-1.36,8.72,0.93,10.08,5.14c7.8,23.99,4.31,47.92-10.09,69.19c-18.35,27.12-54.39,47.6-87.63,49.82
			C2717.79,942.27,2717.61,942.27,2717.43,942.27z"/>
		<g>
			<g>
				<path class="st0" d="M2683.81,735.26c12.53-6.16,15.08-9.85,40.42,16.96c19.8,20.94,46.3,35.91,64.78,40.98
					c21.06,5.78,51.51-0.39,84.6-17.24c46.99-23.92,49.35-49.6,52.83-64.89c3.48-15.3-3.26-45.56-11.16-74.34
					c-7.9-28.78-3.13-22.07-1.45-32.06c1.28-7.62-7-23.56-10.99-30.69c-1.19-2.12-3.68-3.14-6.02-2.45
					c-27.18,7.98-66.06,24.59-112.77,50.96c-38.02,21.47-79.42,58.65-96.09,74.26c-5.23,4.9-11.12,9.03-17.5,12.28h0l0,0
					c-6.38,3.25-13.19,5.59-20.23,6.94c-22.42,4.31-76.84,15.93-116.56,34.07c-48.79,22.28-85.09,43.96-107.53,61.26
					c-1.93,1.49-2.57,4.1-1.55,6.31c3.42,7.42,11.45,23.49,18.36,26.93c9.06,4.51,6.44-3.28,25.08,20.02
					c18.63,23.31,39.15,46.55,53.57,52.73c14.42,6.18,36.58,19.36,83.55-4.58c33.08-16.86,55.97-37.86,63.68-58.3
					c6.76-17.93,10.24-48.17,4.94-76.49C2666.98,741.66,2671.47,741.78,2683.81,735.26z"/>
				<path class="st0" d="M2556.47,934.51c-15.87,0-26.93-4.93-35.04-8.54c-1.03-0.46-2.03-0.9-2.98-1.31
					c-13.28-5.69-30.76-22.68-56.67-55.09c-11.77-14.72-13.53-15.07-14.95-15.35c-1.61-0.32-4.04-0.81-7.44-2.5
					c-6.81-3.39-14.23-13.74-22.06-30.75c-2.59-5.63-0.97-12.2,3.94-15.99c25.43-19.6,64.17-41.69,109.09-62.2
					c40.65-18.56,96.33-30.41,118.38-34.65c6.3-1.21,12.39-3.3,18.11-6.21c5.71-2.91,10.99-6.61,15.67-10.99
					c16.39-15.35,58.71-53.41,97.62-75.38c43-24.28,83.64-42.63,114.45-51.67c5.95-1.75,12.22,0.81,15.25,6.22
					c9.16,16.34,13.16,28.43,11.9,35.92c-0.63,3.75-1.67,6-2.35,7.49c-0.61,1.31-1.36,2.95,3.63,21.12
					c10.98,40.01,14.45,64.14,11.24,78.23c-0.23,1.02-0.46,2.08-0.69,3.19c-3.42,16.1-9.15,43.05-56.31,67.06
					c-35.07,17.86-67.16,24.19-90.34,17.82c-18.58-5.1-46.95-20.44-68.47-43.2c-7.2-7.62-16.12-16.61-21.14-18.55
					c-1.65-0.63-2.38-0.53-7.81,2.2c-0.65,0.33-1.33,0.67-2.03,1.02c-0.7,0.37-1.37,0.71-2.02,1.05c-5.4,2.79-5.92,3.31-6.37,5.02
					c-1.39,5.2,0.65,17.69,2.58,28c5.76,30.79,1.48,62.76-5.31,80.79c-8.48,22.5-32.47,44.73-67.53,62.6
					C2587.07,930.92,2570.02,934.51,2556.47,934.51z M2432.8,816.28c6.5,13.67,11.72,20.1,13.72,21.1c1.5,0.75,2.28,0.9,3.45,1.14
					c6.9,1.38,10.92,4.31,24.31,21.05c8.65,10.81,34.96,43.73,50.48,50.38c1.02,0.44,2.09,0.91,3.19,1.41
					c14.02,6.25,33.23,14.81,73.57-5.76c31.05-15.82,52.86-35.5,59.83-53.99c6.01-15.94,9.75-44.45,4.56-72.2
					c-3.51-18.74-4.13-28.24-2.31-35.07c2.37-8.86,8.53-12.04,14.5-15.11c0.64-0.33,1.3-0.67,1.99-1.03l0.21-0.1
					c0.7-0.34,1.36-0.68,2-1c6-3.02,12.19-6.14,20.75-2.84c6.6,2.54,13.92,8.63,27.01,22.49c19.4,20.52,44.65,34.25,61.08,38.76
					c19.05,5.23,47.79-0.84,78.85-16.65c40.35-20.55,44.72-41.11,47.92-56.13c0.25-1.18,0.49-2.32,0.74-3.41
					c3.74-16.46-7.41-57.1-11.07-70.45c-5.67-20.67-5.67-25.65-2.74-32.04c0.5-1.09,0.83-1.8,1.11-3.46c0.37-2.2-1.77-10.21-9-23.5
					c-29.41,8.93-67.98,26.48-108.95,49.61c-37.41,21.12-78.59,58.18-94.55,73.13c-5.78,5.41-12.29,9.98-19.34,13.57
					c-7.06,3.59-14.58,6.17-22.35,7.67c-21.48,4.12-75.67,15.65-114.75,33.49C2494.19,776.86,2457.31,797.74,2432.8,816.28z"/>
			</g>
			<path class="st5" d="M2546.59,761.66c0,0-42.08,17.7-61.4,38.56c-7.31,7.89-10.27,18.86-8,29.37
				c5.9,27.33,31.83,65.77,59.65,83.11c24.88,15.51,68.01-8.97,87.78-21.99c13.18-8.68,23.61-21.04,29.56-35.66
				c4.43-10.9,7.31-24.66,5.17-40.82c-5.71-43.07-15.35-65.24-26.93-69.68C2602.58,733.1,2546.59,761.66,2546.59,761.66z"/>
			<path class="st5" d="M2785.84,639.78c0,0,39.05-23.63,67.29-27c10.68-1.27,21.29,2.78,28.47,10.8
				c18.64,20.84,34.48,64.42,32.15,97.11c-2.08,29.24-47.24,49.74-69.4,58.08c-14.77,5.56-30.9,6.72-46.22,2.94
				c-11.42-2.82-24.25-8.59-36.06-19.82c-31.48-29.95-43.75-50.77-40.53-62.76C2729.83,668.27,2785.84,639.78,2785.84,639.78z"/>
		</g>
	</g>
</g>
<g>
	<g>
		<path class="st0" d="M734.11,1366.6c-1.43,0-2.88-0.21-4.33-0.64c-5.39-1.6-9.95-6.12-11.62-11.49
			c-3.24-10.43-5.11-19.52-7.94-33.28c-1.03-5.01-2.2-10.69-3.61-17.27c-0.92-4.32,1.83-8.57,6.15-9.5c4.32-0.92,8.57,1.83,9.5,6.15
			c1.42,6.64,2.6,12.36,3.64,17.4c2.74,13.3,4.55,22.08,7.55,31.76c0.05,0.16,0.19,0.35,0.35,0.51
			c72.96-59.97,189.98-120.4,334.95-70.29c4.18,1.44,6.39,6,4.95,10.17c-1.44,4.18-6,6.39-10.17,4.95
			c-138.64-47.92-250.85,10.73-320.57,68.36C740.42,1365.52,737.34,1366.6,734.11,1366.6z"/>
		<path class="st0" d="M1512.08,1735.67c-5.39,0-11.01-0.04-16.92-0.07c-4.12-0.03-8.4-0.05-12.84-0.07
			c-4.39-0.02-8.74-2.35-11.08-5.95c-2.04-3.12-2.37-6.82-0.92-10.15c23.34-53.57,30.9-138.65,0.2-197.6
			c-19.03-36.54-50.04-59.4-92.18-67.94c-4.33-0.88-7.13-5.1-6.25-9.43c0.88-4.33,5.1-7.13,9.43-6.25
			c24.34,4.93,45.7,14.39,63.48,28.12c16.27,12.56,29.64,28.75,39.72,48.11c33.27,63.9,25.05,149.49,2.89,205.12
			c2.62,0.01,5.17,0.03,7.67,0.05c16.03,0.1,29.87,0.19,42.44-0.42c4.41-0.24,8.16,3.19,8.38,7.6s-3.19,8.16-7.6,8.38
			C1530.2,1735.56,1521.5,1735.67,1512.08,1735.67z"/>
		<g>
			<path class="st0" d="M1152.48,855.6c-0.57,0-1.16-0.06-1.74-0.19c-29.73-6.61-60.54-25.79-86.76-54.01
				c-26.62-28.66-46.23-64.41-55.2-100.65c-17.24-69.62,4.67-134.63,61.68-183.05c3.37-2.86,8.42-2.45,11.28,0.92
				c2.86,3.37,2.45,8.42-0.92,11.28c-52.14,44.28-72.21,103.59-56.51,167.01c16.75,67.65,73.81,130.42,129.9,142.88
				c4.31,0.96,7.03,5.23,6.07,9.55C1159.46,853.06,1156.15,855.6,1152.48,855.6z"/>
			<g>
				<path class="st0" d="M1144.65,536.31c-0.1,0-0.21,0-0.31-0.01l-3.05-0.12c-24.6-0.95-32.03-1.23-67.06-4.56
					c-4.4-0.42-7.62-4.32-7.21-8.72c0.42-4.4,4.32-7.63,8.72-7.21c34.58,3.29,41.9,3.57,66.16,4.5l3.05,0.12
					c4.42,0.17,7.86,3.89,7.69,8.3C1152.48,532.92,1148.93,536.31,1144.65,536.31z"/>
				<path class="st0" d="M1074.99,531.65c-1.97,0-3.95-0.72-5.49-2.19c-3.21-3.03-3.35-8.1-0.32-11.31
					c27.86-29.49,27.86-29.49,46.78-49.44c3.04-3.21,8.1-3.34,11.31-0.3c3.21,3.04,3.34,8.1,0.3,11.31
					c-18.91,19.95-18.91,19.95-46.76,49.42C1079.23,530.81,1077.11,531.65,1074.99,531.65z"/>
				<path class="st0" d="M1075,531.65c-0.47,0-0.95-0.04-1.44-0.13c-4.35-0.79-7.23-4.95-6.44-9.3c5.6-30.87,8.86-45.09,12.63-61.57
					c0.64-2.79,1.3-5.67,1.99-8.71c0.98-4.31,5.27-7.01,9.57-6.03c4.31,0.98,7.01,5.26,6.03,9.57c-0.69,3.06-1.35,5.94-2,8.75
					c-3.88,16.96-6.95,30.35-12.48,60.86C1082.16,528.95,1078.79,531.65,1075,531.65z"/>
			</g>
		</g>
		<g>
			<path class="st0" d="M1702.99,1083.74c-4.42,0-8-3.58-8-8s3.58-8,8-8c88.12,0,161.82-29.49,202.21-80.92
				c37.7-48.01,46.9-113.03,27.33-193.25c-1.05-4.29,1.58-8.62,5.88-9.67c4.29-1.04,8.62,1.58,9.67,5.88
				c10.67,43.75,13.11,83.99,7.26,119.6c-5.45,33.15-18.08,62.53-37.56,87.32c-22.86,29.11-54.58,51.48-94.27,66.5
				C1787.99,1076.64,1746.31,1083.74,1702.99,1083.74z"/>
			<g>
				<path class="st0" d="M1941.06,799.68c-0.33,0-0.66-0.02-1-0.06c-38.86-4.84-46.99-6.32-73.95-11.23l-3.34-0.61
					c-4.35-0.79-7.23-4.96-6.44-9.3c0.79-4.35,4.96-7.23,9.3-6.44l3.34,0.61c26.61,4.85,34.65,6.31,73.05,11.1
					c4.38,0.55,7.5,4.54,6.95,8.93C1948.48,796.71,1945.03,799.68,1941.06,799.68z"/>
				<path class="st0" d="M1941.05,799.68c-3.1,0-6.05-1.82-7.36-4.85c-10.07-23.45-15.8-34.7-31.67-63.89
					c-2.11-3.88-0.67-8.74,3.21-10.85c3.88-2.11,8.74-0.67,10.85,3.21c15.91,29.25,22.08,41.36,32.32,65.23
					c1.74,4.06-0.14,8.76-4.2,10.51C1943.17,799.47,1942.1,799.68,1941.05,799.68z"/>
				<path class="st0" d="M1941.05,799.67c-0.11,0-0.21,0-0.32-0.01c-4.42-0.17-7.85-3.89-7.68-8.31
					c1.35-34.52,1.26-49.83,1.13-69.22c-0.02-3.2-0.04-6.49-0.06-9.98c-0.02-4.42,3.55-8.02,7.97-8.03c0.01,0,0.02,0,0.03,0
					c4.4,0,7.98,3.56,8,7.97c0.01,3.48,0.04,6.76,0.06,9.95c0.12,18.81,0.22,35.06-1.15,69.95
					C1948.87,796.3,1945.32,799.67,1941.05,799.67z"/>
			</g>
		</g>
	</g>
	<g>
		<path class="st1" d="M1836.03,345.43c30.75,59.41-14.3,150.67-33.8,214.66c-31.01,101.81-27.47,210.59-43.75,315.77
			c-25.56,165.13-173.2,579.37-402.91,570.87c-182.86-18.62-307.78-106.66-313.85-257.68c-5.49-136.55,89.16-384.83,383.41-700.61
			c20.26-21.74,38.26-45.48,53.81-70.8c38.72-63.06,75.63-129.51,131.39-161.96C1654.35,230.06,1780.71,238.56,1836.03,345.43z"/>
		<path class="st2" d="M1775.09,276.62c-65.33-18.41-118.18-24.33-163.95,14.34c-26.99,22.8-52.72,64.06-82.67,108.67
			c-32.08,47.78-61.64,100.06-98.64,144.15c-178.82,213.09-467.52,550.74-279.57,836.77c-65.59-43.9-105.18-108.09-108.54-191.49
			c-5.49-136.56,89.16-384.83,383.41-700.61c20.26-21.74,38.26-45.48,53.81-70.8c38.72-63.06,75.63-129.51,131.39-161.96
			C1641.83,237.35,1715.47,236.49,1775.09,276.62z"/>
		<g>
			<path class="st1" d="M1702.97,247.11c30.92-40.99,50.04-63.87,83.78-84.85c0.31-0.19,0.7-0.21,1.02-0.03
				c14,7.86,38.45,24.81,51.73,38.13c0.32,0.32,0.37,0.81,0.15,1.2c-24.53,42.94-29.86,63.08-37.6,97.21
				C1772.57,269.5,1736.33,253.66,1702.97,247.11z"/>
			<path class="st0" d="M1806.65,314.63l-10.24-10.18c-31.98-31.77-69.31-44.45-94.98-49.49l-12.54-2.46l7.69-10.2
				c29.5-39.11,50-64.48,85.94-86.82c2.79-1.74,6.31-1.82,9.17-0.21c15.44,8.67,40.28,26.22,53.47,39.45
				c2.85,2.86,3.44,7.31,1.43,10.82c-24.07,42.15-29.15,61.56-36.74,95.01L1806.65,314.63z M1716.84,242.06
				c23.68,6.13,53.24,18.11,80.53,41.51c6.22-25.74,13.04-46.21,32.64-81.22c-11.68-10.67-29.56-23.34-42.56-31.07
				C1759.78,189.16,1742.41,208.63,1716.84,242.06z"/>
		</g>
		<path class="st0" d="M1362.51,1454.86c-2.41,0-4.82-0.04-7.23-0.13l-0.51-0.04c-93.71-9.54-172.33-37.5-227.36-80.87
			c-28.7-22.61-51.21-49.44-66.9-79.74c-16.23-31.35-25.24-66.58-26.78-104.71c-2.17-54.05,9.97-147.71,80.15-287.01
			c66.69-132.36,169.44-273.46,305.4-419.37c19.74-21.18,37.52-44.58,52.84-69.54c3.45-5.62,6.89-11.26,10.32-16.91
			c35.07-57.62,71.33-117.2,123.86-147.78c26.73-15.55,73.74-17.56,116.98-4.98c24.41,7.1,46.68,18.32,66.18,33.33
			c22.3,17.17,40.35,38.91,53.66,64.63c26.26,50.74,1.91,119.56-19.57,180.29c-5.08,14.34-9.87,27.89-13.67,40.38
			c-19.48,63.93-25.29,132.25-30.91,198.31c-3.25,38.24-6.62,77.79-12.59,116.36c-6.94,44.85-22.16,103.68-41.76,161.41
			c-23.44,69.04-52.5,135.37-84.05,191.82c-38.28,68.49-79.82,122.35-123.49,160.08C1467.54,1433.2,1415.58,1454.86,1362.51,1454.86
			z M1356.12,1438.75c121.25,4.27,214-115.19,270.48-216.24c66.64-119.25,110.98-263.92,123.97-347.87
			c5.88-38.02,9.23-77.29,12.46-115.27c5.69-66.89,11.58-136.06,31.55-201.62c3.91-12.83,8.76-26.54,13.89-41.06
			c20.4-57.66,43.52-123.02,20.45-167.6c-29.17-56.36-75.98-80.02-110.1-89.95c-45.15-13.13-85.8-7.42-104.47,3.44
			c-49.03,28.53-84.21,86.35-118.24,142.27c-3.45,5.66-6.89,11.33-10.35,16.96c-15.88,25.86-34.31,50.11-54.77,72.07
			c-364,390.63-383.85,630.59-381.27,694.84C1055.33,1328.31,1167,1419.42,1356.12,1438.75z"/>
		<g>
			<path class="st3" d="M1131.48,1310.29c-0.31,0-0.62-0.02-0.93-0.05c-4.39-0.51-7.54-4.48-7.03-8.87
				c16.46-142.54,29.41-229.83,104.26-366.48c2.12-3.87,6.99-5.29,10.86-3.17c3.88,2.12,5.3,6.98,3.17,10.86
				c-73.57,134.3-85.71,216.02-102.4,360.63C1138.95,1307.29,1135.49,1310.29,1131.48,1310.29z"/>
			<path class="st3" d="M1234.8,1387.55c-1.2,0-2.41-0.27-3.55-0.84c-3.96-1.97-5.57-6.77-3.6-10.73
				c8.9-17.91,17.32-34.64,25.47-50.82c32.8-65.17,61.13-121.46,98.53-210.29c1.71-4.07,6.41-5.98,10.48-4.27
				c4.07,1.71,5.98,6.41,4.27,10.48c-37.61,89.33-66.05,145.84-98.99,211.28c-8.13,16.16-16.54,32.87-25.43,50.75
				C1240.57,1385.92,1237.74,1387.55,1234.8,1387.55z"/>
			<path class="st3" d="M1355.57,1416.12c-1.93,0-3.87-0.7-5.41-2.11c-3.26-2.99-3.47-8.05-0.48-11.3
				c74.54-81.22,145.25-164.45,191.2-289.15c1.53-4.15,6.13-6.27,10.27-4.74c4.15,1.53,6.27,6.13,4.74,10.27
				c-46.96,127.42-118.76,211.98-194.43,294.43C1359.89,1415.25,1357.74,1416.12,1355.57,1416.12z"/>
			<path class="st3" d="M1684.06,728.96c-1.04,0-2.09-0.2-3.1-0.63c-4.07-1.72-5.98-6.41-4.26-10.48
				c58.47-138.64,76.08-213.82,95.64-340.12c0.68-4.37,4.76-7.36,9.13-6.68c4.37,0.68,7.36,4.76,6.68,9.13
				c-19.78,127.68-37.59,203.68-96.71,343.89C1690.15,727.13,1687.18,728.96,1684.06,728.96z"/>
			<path class="st3" d="M1576.48,655.01c-1.18,0-2.37-0.26-3.5-0.81c-3.97-1.94-5.62-6.73-3.69-10.7
				c53.82-110.4,73.07-153.38,115.79-267.35c1.55-4.14,6.16-6.23,10.3-4.68c4.14,1.55,6.23,6.16,4.68,10.3
				c-42.96,114.6-62.3,157.81-116.39,268.75C1582.3,653.36,1579.45,655.01,1576.48,655.01z"/>
			<path class="st3" d="M1458.57,614.46c-1.11,0-2.24-0.23-3.32-0.72c-4.02-1.83-5.79-6.58-3.96-10.6
				c51.34-112.54,91.32-176.8,178.24-286.48c2.74-3.46,7.78-4.04,11.24-1.3c3.46,2.74,4.05,7.78,1.3,11.24
				c-85.98,108.5-125.5,172.02-176.22,283.18C1464.51,612.72,1461.61,614.46,1458.57,614.46z"/>
		</g>
	</g>
	<g>
		<path class="st0" d="M1475.95,918.06c-6.57,0-13.18-1.19-19.57-3.81c-29.34-12.03-40.8-48.88-33.1-75.76
			c1.22-4.25,5.65-6.7,9.89-5.49c4.25,1.22,6.7,5.65,5.49,9.89c-5.67,19.8,2.7,47.9,23.79,56.55c21.09,8.65,46.78-5.48,56.64-23.56
			c2.12-3.88,6.98-5.31,10.85-3.19c3.88,2.12,5.31,6.98,3.19,10.85C1522.66,902.75,1499.56,918.06,1475.95,918.06z"/>
		<g>
			
				<ellipse transform="matrix(0.3794 -0.9252 0.9252 0.3794 142.3603 2065.9126)" class="st4" cx="1611.23" cy="926.83" rx="11.37" ry="27.05"/>
			
				<ellipse transform="matrix(0.3794 -0.9252 0.9252 0.3794 76.3403 1742.933)" class="st4" cx="1337.46" cy="814.56" rx="11.37" ry="27.05"/>
		</g>
		<g>
			
				<ellipse transform="matrix(0.8491 -0.5283 0.5283 0.8491 -208.5383 966.5609)" class="st0" cx="1587.39" cy="848.26" rx="26.37" ry="26.37"/>
			<path class="st6" d="M1574.3,829.4c-1.31,3.19,0.22,6.83,3.4,8.14c3.19,1.31,6.83-0.22,8.14-3.4c1.31-3.19-0.22-6.83-3.4-8.14
				C1579.25,824.69,1575.6,826.21,1574.3,829.4z"/>
		</g>
		<g>
			
				<ellipse transform="matrix(0.7071 -0.7071 0.7071 0.7071 -135.3931 1223.6833)" class="st0" cx="1409.42" cy="775.28" rx="26.37" ry="26.37"/>
			<path class="st6" d="M1396.33,756.41c-1.31,3.19,0.22,6.83,3.4,8.14c3.19,1.31,6.83-0.22,8.14-3.4c1.31-3.19-0.22-6.83-3.4-8.14
				C1401.28,751.7,1397.63,753.23,1396.33,756.41z"/>
		</g>
	</g>
</g>
<g>
	<g>
		<path class="st0" d="M230.77,1736.3c-9.42,0-18.12-0.11-26.39-0.51c-4.41-0.21-7.82-3.96-7.6-8.38c0.21-4.41,3.96-7.84,8.38-7.6
			c12.57,0.61,26.41,0.52,42.44,0.42c2.86-0.02,5.8-0.04,8.81-0.05c-17.95-89.64-13.72-215.96,37.99-286.8
			c2.61-3.57,7.61-4.35,11.18-1.75c3.57,2.61,4.35,7.61,1.75,11.18c-49.73,68.13-52.64,192.28-34.29,278.78
			c0.72,3.4-0.15,6.95-2.39,9.73c-2.43,3.01-6.21,4.82-10.11,4.84c-4.45,0.02-8.72,0.04-12.84,0.07
			C241.77,1736.26,236.15,1736.3,230.77,1736.3z"/>
		<path class="st0" d="M628.73,1736.3c-5.39,0-11.01-0.04-16.92-0.07c-4.12-0.03-8.4-0.05-12.84-0.07
			c-3.61-0.01-7.07-1.56-9.48-4.23c-2.33-2.58-3.48-6.03-3.15-9.45c8-82.5-2.48-236.76-42.35-299.88
			c-2.36-3.74-1.24-8.68,2.49-11.04c3.74-2.36,8.68-1.24,11.04,2.49c41.69,66.01,52.85,218.52,45.1,306.12
			c3.18,0.02,6.28,0.04,9.3,0.05c16.03,0.1,29.87,0.19,42.44-0.42c4.42-0.22,8.16,3.19,8.38,7.6c0.21,4.41-3.19,8.16-7.6,8.38
			C646.85,1736.19,638.15,1736.3,628.73,1736.3z"/>
		<g>
			<path class="st0" d="M621.49,944.47c-3.27,0-6.34-2.02-7.52-5.27c-1.51-4.15,0.64-8.74,4.79-10.25
				c107.42-38.99,121.44-153.15,109.45-312.57c-0.33-4.41,2.97-8.25,7.38-8.58c4.41-0.33,8.25,2.97,8.58,7.38
				c4.88,64.9,7.64,139.57-8.89,201.28c-17.42,65.01-53.74,106.73-111.06,127.53C623.32,944.32,622.4,944.47,621.49,944.47z"/>
			<g>
				<path class="st0" d="M735.78,625.76c-1.96,0-3.92-0.71-5.47-2.16c-25.69-24.04-30.82-29.42-47.81-47.23l-2.11-2.21
					c-3.05-3.2-2.93-8.26,0.26-11.31c3.2-3.05,8.26-2.93,11.31,0.26l2.11,2.21c16.76,17.56,21.81,22.86,47.17,46.6
					c3.23,3.02,3.39,8.08,0.37,11.31C740.05,624.91,737.92,625.76,735.78,625.76z"/>
				<path class="st0" d="M735.77,625.76c-3.99,0-7.44-2.98-7.93-7.05c-3.47-28.86-4.28-38.26-6.25-60.96l-0.47-5.46
					c-0.38-4.4,2.88-8.28,7.28-8.66c4.4-0.38,8.28,2.88,8.66,7.28l0.47,5.46c1.95,22.51,2.75,31.82,6.19,60.42
					c0.53,4.39-2.6,8.37-6.99,8.9C736.41,625.74,736.09,625.76,735.77,625.76z"/>
				<path class="st0" d="M735.78,625.76c-1.73,0-3.48-0.56-4.95-1.72c-3.47-2.74-4.06-7.77-1.33-11.24
					c13.57-17.21,20.05-27.9,26.31-38.23c3.92-6.47,7.62-12.58,12.73-19.66c2.58-3.58,7.58-4.4,11.17-1.82
					c3.58,2.58,4.4,7.58,1.82,11.17c-4.73,6.57-8.27,12.41-12.02,18.6c-6.21,10.25-13.25,21.86-27.43,39.84
					C740.49,624.71,738.14,625.76,735.78,625.76z"/>
			</g>
		</g>
		<g>
			<path class="st0" d="M234.09,944.47c-0.51,0-1.04-0.05-1.56-0.15c-57.81-11.42-93.92-79.08-114.03-133.84
				c-24.18-65.83-35-138.43-35-181.18c0-4.42,3.58-8,8-8c4.42,0,8,3.58,8,8c0,41.33,10.52,111.68,34.02,175.67
				c12.47,33.95,27.01,61.69,43.21,82.46c18.1,23.2,37.92,37.06,58.9,41.2c4.33,0.86,7.15,5.06,6.3,9.4
				C241.18,941.83,237.83,944.47,234.09,944.47z"/>
			<g>
				<path class="st0" d="M92.13,637.3c-2.26,0-4.51-0.96-6.1-2.82c-2.86-3.36-2.46-8.41,0.91-11.28
					c0.2-0.17,20.21-17.18,47.79-39.45c3.44-2.78,8.47-2.24,11.25,1.2c2.78,3.44,2.24,8.47-1.2,11.25
					c-27.41,22.13-47.27,39.02-47.47,39.19C95.81,636.67,93.97,637.3,92.13,637.3z"/>
				<path class="st0" d="M92.12,637.3c-1.59,0-3.19-0.47-4.58-1.45c-18.58-13.02-34.85-26.11-49.74-40.03
					c-3.23-3.02-3.4-8.08-0.38-11.31c3.02-3.23,8.08-3.4,11.31-0.38c14.34,13.4,30.04,26.03,48,38.61c3.62,2.54,4.5,7.52,1.96,11.14
					C97.12,636.11,94.64,637.3,92.12,637.3z"/>
				<path class="st0" d="M92.12,637.3c-4.18,0-7.69-3.24-7.97-7.47c-0.02-0.28-1.9-28.48-3.05-56.1c-0.18-4.41,3.24-8.14,7.66-8.33
					c4.4-0.17,8.14,3.24,8.33,7.66c1.15,27.41,3.01,55.42,3.03,55.7c0.29,4.41-3.04,8.22-7.45,8.52
					C92.48,637.29,92.3,637.3,92.12,637.3z"/>
			</g>
		</g>
	</g>
	<g>
		<path class="st1" d="M451.92,213.26c-37.5-41.9-100.56-49.06-145.66-15.48c-19.19,14.29-31.43,31.36-36.59,53.52
			c-8.69,37.33,6.03,75.42,9.83,113.56c44.24,444.21-197.99,898.92,15.56,1068.8c106.73,84.9,264.86,33.69,304.22-96.89
			c72.42-240.28-12.42-681.14-34.37-807.28c-16.6-95.41-36.81-192.16-84.6-276.39C472.5,239.32,462.91,225.53,451.92,213.26z"/>
		<g>
			<path class="st1" d="M292.3,207.81c1.71-1.73,3.47-3.44,5.34-5.12c21.71-19.58,49.28-28.65,76.55-27.47h0
				c-16.12-42.32-18.04-0.16-53.17-78.66c-0.23-0.51-0.82-0.74-1.33-0.51c-14.59,6.76-37.22,16.74-55.03,30.51
				c-0.39,0.3-0.5,0.86-0.25,1.3C299.5,190.03,275.74,171.15,292.3,207.81z"/>
			<path class="st0" d="M289.81,221.74l-4.8-10.63c-7.42-16.43-7.5-23.4-7.58-29.55c-0.08-7.2-0.17-14.65-19.99-49.76
				c-2.18-3.88-1.18-8.84,2.33-11.56c17.16-13.28,37.92-22.85,53.09-29.84l3.47-1.6c2.2-1.02,4.66-1.11,6.92-0.26
				c2.24,0.84,4.09,2.57,5.07,4.76c19,42.46,27.27,47.41,33.3,51.03c7.33,4.39,12.68,8.72,20.04,28.05l4.33,11.36l-12.15-0.52
				c-26.27-1.13-51.43,7.9-70.85,25.42c-1.63,1.47-3.26,3.04-5,4.8L289.81,221.74z M274.39,129.33
				c17.46,31.64,18.91,41.3,19.04,52.04c0.04,3.55,0.08,6.78,1.98,12.66c18.91-15.88,42.11-25.12,66.64-26.67
				c-3.18-6.02-5.55-7.44-8.65-9.31c-7.9-4.74-17.64-10.58-36.75-51.77C304.03,112.1,288.11,119.68,274.39,129.33z M323.05,103.31
				l-0.01,0.01C323.04,103.31,323.05,103.31,323.05,103.31z"/>
		</g>
		<path class="st2" d="M401.9,1474.93c-1.16-0.07-2.32-0.15-3.49-0.24c-1.16-0.09-2.32-0.2-3.48-0.31s-2.32-0.24-3.48-0.37
			c-1.16-0.14-2.33-0.28-3.48-0.44c-1.15-0.15-2.29-0.32-3.43-0.49c-0.02,0-0.04-0.01-0.05-0.01c-1.16-0.18-2.32-0.37-3.48-0.57
			c-0.1-0.01-0.2-0.03-0.3-0.05c-0.99-0.17-1.99-0.36-2.98-0.55c-0.28-0.05-0.56-0.1-0.84-0.16c-0.85-0.17-1.71-0.34-2.56-0.52
			c-0.42-0.09-0.84-0.18-1.26-0.27c-0.81-0.18-1.63-0.36-2.44-0.55s-1.61-0.38-2.42-0.58c-0.28-0.06-0.56-0.13-0.84-0.21
			c-0.36-0.09-0.72-0.18-1.08-0.27c-0.64-0.16-1.27-0.33-1.91-0.5c-1-0.27-2.01-0.55-3.01-0.84c-0.52-0.15-1.05-0.3-1.58-0.46
			c-0.62-0.18-1.25-0.37-1.88-0.57c-0.63-0.19-1.26-0.39-1.88-0.59c-0.63-0.19-1.26-0.4-1.88-0.61c-0.53-0.17-1.06-0.35-1.59-0.53
			c-0.87-0.3-1.73-0.6-2.59-0.91c-0.91-0.32-1.83-0.65-2.74-1c-0.4-0.15-0.8-0.3-1.2-0.45c-0.66-0.25-1.32-0.51-1.98-0.77
			c-0.37-0.15-0.73-0.29-1.09-0.44c-2.21-0.89-4.42-1.83-6.6-2.81c-0.87-0.39-1.74-0.78-2.61-1.19c-0.26-0.12-0.51-0.24-0.77-0.37
			c-0.8-0.37-1.6-0.75-2.4-1.15c-1.37-0.67-2.74-1.36-4.1-2.06c-1.01-0.53-2.01-1.06-3.02-1.61c-0.79-0.43-1.58-0.87-2.37-1.31
			c-0.38-0.21-0.75-0.42-1.12-0.64c-0.82-0.46-1.63-0.93-2.44-1.41c-3.55-2.09-7.06-4.32-10.53-6.67c-0.88-0.6-1.76-1.21-2.63-1.83
			c-0.28-0.19-0.55-0.38-0.82-0.58c-0.75-0.53-1.5-1.08-2.25-1.63c-0.07-0.05-0.15-0.1-0.22-0.16c-0.89-0.65-1.77-1.31-2.65-1.98
			c-0.11-0.08-0.21-0.16-0.31-0.24c-1.03-0.78-2.05-1.57-3.06-2.38c-10.52-8.36-19.93-17.42-28.32-27.13
			c-1.68-1.94-3.32-3.91-4.91-5.9c-7.2-8.98-13.58-18.48-19.22-28.48c-1.25-2.22-2.46-4.46-3.64-6.73
			c-1.18-2.27-2.33-4.57-3.44-6.89s-2.18-4.67-3.22-7.03c-3.63-8.29-6.85-16.87-9.66-25.72c-0.81-2.53-1.58-5.08-2.32-7.66
			c-1.55-5.39-2.97-10.88-4.25-16.46c-0.8-3.49-1.55-7.02-2.25-10.59c-0.11-0.53-0.21-1.06-0.31-1.59
			c-0.43-2.23-0.84-4.48-1.23-6.75c-0.08-0.47-0.16-0.95-0.24-1.42c-0.4-2.33-0.77-4.68-1.12-7.05c-0.07-0.41-0.13-0.83-0.19-1.25
			c-0.36-2.43-0.69-4.88-1.01-7.34c-28.24-220.11,103.37-563.49,69.77-900.81c-3.27-32.86-14.65-65.68-12.18-98.01
			c0.08-1.04,0.17-2.08,0.28-3.12c0.16-1.55,0.36-3.11,0.59-4.67c0.23-1.55,0.5-3.1,0.81-4.66c0.21-1.03,0.43-2.07,0.67-3.1
			c0.35-1.49,0.73-2.96,1.14-4.4c0.25-0.87,0.51-1.74,0.78-2.59c0.16-0.5,0.32-1,0.49-1.49c0.19-0.58,0.39-1.16,0.6-1.74
			c0.15-0.42,0.3-0.84,0.47-1.26c0.19-0.52,0.39-1.03,0.6-1.54c0.19-0.51,0.4-1.01,0.62-1.51c0.32-0.77,0.65-1.53,1-2.29
			c6.55-14.32,16.86-26.25,30.89-36.7c7.9-5.88,16.35-10.51,25.12-13.92c-27.56,19.2-44.16,50.62-41.16,89.94
			c6.38,83.58,78.34,216.02,13.6,539.96C275.14,1070.38,194.16,1418.32,401.9,1474.93z"/>
		<path class="st0" d="M413.24,1483.26c-11.15,0-22.26-0.93-33.19-2.8c-32.97-5.65-63.24-19.29-89.97-40.55
			c-59.69-47.48-88.94-118.34-92.06-222.99c-2.77-92.81,15.4-203.96,34.63-321.65c26.69-163.31,56.94-348.4,38.89-529.63
			c-1.18-11.83-3.51-24.03-5.77-35.83c-5.01-26.2-10.19-53.29-3.89-80.34c5.42-23.31,18.38-42.32,39.6-58.12
			c23.38-17.4,52.26-25.25,81.32-22.1c28.91,3.14,55.57,16.87,75.08,38.66l0,0c10.72,11.98,20.88,26.24,29.39,41.22
			c49.23,86.77,69.25,185.39,85.52,278.96c1.22,7,2.63,14.97,4.2,23.82c27.05,152.72,98.9,558.38,29.95,787.14
			c-10.01,33.2-27.39,62.15-51.67,86.05c-22.78,22.42-51.04,39.34-81.75,48.94C453.96,1480.17,433.55,1483.26,413.24,1483.26z
			 M370.39,184.43c-20.72,0-41.52,6.48-59.36,19.76c-18.31,13.64-28.98,29.18-33.57,48.91c-5.53,23.75-0.89,48.02,4.03,73.71
			c2.32,12.14,4.72,24.7,5.97,37.24c18.26,183.31-12.17,369.51-39.02,533.79c-19.11,116.9-37.15,227.32-34.43,318.59
			c2.97,99.59,30.31,166.62,86.03,210.95c48.26,38.39,109.75,49.83,168.7,31.4c59.04-18.46,104.97-64.94,122.88-124.33
			c67.85-225.1-3.52-628.04-30.38-779.73c-1.57-8.87-2.99-16.86-4.21-23.87c-16.04-92.19-35.71-189.27-83.68-273.81
			c-7.95-14-17.42-27.3-27.39-38.44C425.82,196.08,398.18,184.43,370.39,184.43z"/>
		<g>
			<path class="st3" d="M436.83,628.39c-4.42,0-8-3.58-8-8c0-101-5.32-250.63-51.33-383.3c-1.45-4.17,0.76-8.73,4.94-10.18
				c4.18-1.45,8.73,0.76,10.18,4.94c19.76,56.96,33.47,119.29,41.94,190.56c6.92,58.22,10.28,122.98,10.28,197.98
				C444.83,624.81,441.25,628.39,436.83,628.39z"/>
			<path class="st3" d="M361.67,615c-0.14,0-0.27,0-0.41-0.01c-4.41-0.22-7.81-3.98-7.59-8.39c6.14-121.5-8.14-258.74-38.21-367.13
				c-1.18-4.26,1.31-8.67,5.57-9.85c4.26-1.18,8.67,1.31,9.85,5.57c30.5,109.95,45,249.1,38.77,372.21
				C369.44,611.68,365.9,615,361.67,615z"/>
			<path class="st3" d="M427.8,1411.47c-3.63,0-6.92-2.49-7.78-6.18c-13.9-59.59-23.69-134.62-27.55-211.26
				c-3.86-76.56-1.49-148.25,6.67-201.87c0.66-4.37,4.75-7.37,9.11-6.71c4.37,0.66,7.37,4.75,6.7,9.11
				c-16.46,108.1-7.39,286.92,20.64,407.09c1,4.3-1.67,8.6-5.97,9.61C429.01,1411.41,428.4,1411.47,427.8,1411.47z"/>
			<path class="st3" d="M351.69,1412.23c-3.06,0-5.99-1.77-7.31-4.75c-23.78-53.48-37.85-124.61-40.68-205.69
				c-2.49-71.3,3.85-148.83,17.85-218.31c0.87-4.33,5.09-7.13,9.42-6.26c4.33,0.87,7.13,5.09,6.26,9.42
				c-23.38,115.99-31.7,294.11,21.77,414.34c1.8,4.04-0.02,8.77-4.06,10.56C353.88,1412.01,352.78,1412.23,351.69,1412.23z"/>
		</g>
	</g>
	<g>
		<path class="st0" d="M433.5,898.15c-31.71,0-56.3-29.75-59.37-57.53c-0.49-4.39,2.68-8.35,7.07-8.83
			c4.39-0.48,8.35,2.68,8.83,7.07c2.26,20.48,20.67,43.29,43.47,43.29c22.79,0,41.2-22.82,43.47-43.29
			c0.49-4.39,4.44-7.55,8.83-7.07c4.39,0.49,7.56,4.44,7.07,8.83C489.79,868.4,465.2,898.15,433.5,898.15z"/>
		<g>
			<ellipse class="st4" cx="293.45" cy="851.03" rx="27.05" ry="11.37"/>
			<ellipse class="st4" cx="569.35" cy="851.03" rx="27.05" ry="11.37"/>
		</g>
		<g>
			
				<ellipse transform="matrix(0.2816 -0.9595 0.9595 0.2816 -513.1828 889.3122)" class="st0" cx="337.32" cy="787.38" rx="26.37" ry="26.37"/>
			<path class="st6" d="M356.59,774.89c0,3.44-2.79,6.24-6.24,6.24c-3.44,0-6.24-2.79-6.24-6.24c0-3.44,2.79-6.24,6.24-6.24
				C353.8,768.65,356.59,771.45,356.59,774.89z"/>
		</g>
		<g>
			
				<ellipse transform="matrix(0.1441 -0.9896 0.9896 0.1441 -325.7977 1198.0856)" class="st0" cx="529.67" cy="787.38" rx="26.37" ry="26.37"/>
			<path class="st6" d="M548.95,774.89c0,3.44-2.79,6.24-6.24,6.24c-3.44,0-6.24-2.79-6.24-6.24c0-3.44,2.79-6.24,6.24-6.24
				C546.15,768.65,548.95,771.45,548.95,774.89z"/>
		</g>
	</g>
</g>
</svg>
