<?xml version="1.0" encoding="utf-8"?>
<!-- Generator: Adobe Illustrator 26.0.2, SVG Export Plug-In . SVG Version: 6.00 Build 0)  -->
<svg version="1.1" id="Layer_1" xmlns="http://www.w3.org/2000/svg" xmlns:xlink="http://www.w3.org/1999/xlink" x="0px" y="0px"
	 viewBox="0 0 1224.4 416" style="enable-background:new 0 0 1224.4 416;" xml:space="preserve">
<style type="text/css">
	.st0{fill:#95C11F;}
	.st1{fill:#FFFFFF;}
	.st2{font-family:'Montserrat-BoldItalic';}
	.st3{font-size:69.4555px;}
</style>
<g>
	<g>
		<g>
			<g>
				<g>
					<g>
						<g>
							<g>
								<path class="st0" d="M73.2,71.6c0,0,11.7,42.2,11.3,74.9c0,0,5.4-26.4,1.6-49.7c-3.6-21.5-14.4-41.7-13.7-29.4
									C72.4,68.3,72.9,70.1,73.2,71.6z"/>
							</g>
							<g>
								<path class="st0" d="M97.5,143.2c0,0-1-14.6-4.3-27.6s-3.1-35-3.1-35L91,59c0,0,3.8-8.6,11.8,33.6s-2.6,36.9,0,101.5
									c0,0,0.2,15.6,13.9,25.4c0,0,25.7,13,25.2,30.7s-3.4,19.7-3.4,19.7s-1.4,6.7-32.1,6.2c-25.7-0.4-35.7-11.8-35.7-11.8
									s-9.4-8.4-7.9-26.4c1.4-18,24.5-15.8,24.5-34.8s-1.2-22.3,2.4-22.6c3.6-0.2,3.4,24.5,3.4,24.5s-0.5,11-12.5,22.3
									c-12,11.3-13.4,14.4-7.9,27.8c5.5,13.4,20.2,16.1,35.5,16.1s31.2-3.8,29.3-19s-25.7-30.5-25.7-30.5s-13-7.9-13.4-34.3
									C97.7,157.8,98.7,177.1,97.5,143.2z"/>
							</g>
							<g>
								<path class="st0" d="M111.2,245c0,0,6.5,8.6,7.3,17.1c0,0,5.3-3,4.6-9.1c-0.7-6.1-10.4-13.2-10.4-13.2s-3.7-2.6-4.8-1.3
									S111.2,245,111.2,245z"/>
							</g>
							<g>
								<path class="st0" d="M79.5,245c0,0,1.1,15.7,13,16.1c0,0-3.8-3.6-5.7-13.2s-2.9-14.3-5.2-13.4C79.4,235.5,79.5,245,79.5,245
									z"/>
							</g>
							<g>
								<path class="st0" d="M318.5,144.6c13.7,26.2,21.2,69,21.2,76.7c0,0,7.4-14.8-0.3-48.7c-7.7-33.9-51.2-73.2-51.2-73.2
									S242.3,50.6,223.3,50s-30.9,9.5-30.9,9.5s-7.7,3.6-7.7-4.2c0-7.7,0-33.9-14.9-27.4c-14.9,6.5-4.8,28.6-4.8,28.6
									s2.4,11.9-5.4,25c-7.7,13.1-14.9,36.3-19,47.6c-4.2,11.3-15.1,19.4-14.9,22s9.5,7.7,21.4-3c0,0,1.2,52.9,45.8,94.6
									s82.1,35.1,82.1,35.1s46.4-7.1,50.6-26.2c0,0-26.8,17.8-54.7,17.3s-42.2-7.1-64.8-24.4c-22.6-17.3-47.6-57.7-48.2-102.3
									c0,0,11.5-16.5,14.8-24.3c0.3-0.7,0.5-1.3,0.7-1.9c1.8-6.5,16.7,30.5,20.2,30.3c3.6-0.1,17.3-13.1,16.7-39.9
									c0,0,11.3,3.6,25,4.2c13.7,0.6,19.1,13,22.6,13.1c3.5,0.1,10.1-8.3-9.5-27.4c0,0-13.9-14.3-12.5-16.1s17.1-1,18.4-0.6
									C255.6,80.2,304.8,118.5,318.5,144.6z M220.3,72.1c-2,2.5,36.2,37,33.3,38.7c-2.9,1.6-16.3-4.3-33.9-7.1
									c-16-2.6-14-8.9-19-7.1c-5,1.7-0.8,36.5-3.6,36.3c-2.8-0.2-8.9-33.3-20.8-33.3c0,0-7.1,0.6-17.8,20.8
									c-10.7,20.2-13.1,14.9-13.1,14.9s12.5-33.9,20.2-48.2c7.7-14.3,11.9-22,10.7-28c-1.2-5.9-8.3-14.3-1.8-15.5s3,16.1,5.9,19
									c3,3,5.4,6.5,13.1,4.2c7.7-2.4,14.9-10.1,26.2-9.5c11.3,0.6,33.1,12.1,32.7,13.7C252.1,72.5,222.3,69.6,220.3,72.1z"/>
							</g>
							<g>
								<g>
									<path class="st0" d="M342.9,253c-19.4,8.9-25.2,7.5-25.2,7.5l-6.5,5.1c28.9,3.1,56.9-22.5,56.9-22.5l-2.4-5.8
										C365.7,237.4,362.3,244.2,342.9,253z"/>
								</g>
								<g>
									<path class="st0" d="M435.9,108c1.8-2.6,0-8.2,0-8.2s-3.7-3.7-4.4,3.1c-0.7,6.8-13.3,16-13.3,16s-27.9,21.1-34.4,18.7
										c-6.5-2.4,18-30,26.2-39.2s10.9-18.7,9.9-20.4s-6.1-3.4-9.9-3.7s-5.8-9.2-8.2-9.2c-2.4,0-5.1,6.1-11.2,17
										c-6.1,10.9-18,19.1-18,19.1s3.1-13.6,6.1-20.1c3.1-6.5,10.9-34,10.9-34s-2.4,0.3-9.5,1c-7.1,0.7-13.6-6.5-16-6.1
										c-2.4,0.3-4.1,3.1-4.1,12.9s-9.2,24.9-9.2,24.9c1.7-9.2-2-26.6-2.7-31c-0.7-4.4-17.7-1-17.7-1s-1.7-7.8-5.8-7.5
										c-4.1,0.3-2,8.9-2,8.9s2,11.9,1.4,36.4c-0.7,24.5-20.8,33-20.8,33l5.8,4.4c25.5-18.7,25.9-49,24.9-58.9
										c-1-9.9,1.7-9.2,1.7-9.2l8.2-0.7c0,0,2.4-3.7,3.7,16c1.4,19.7-10.6,37.8-3.4,37.8c7.1,0,19.4-42.9,19.7-48.3
										c0.3-5.4,5.8-3.1,7.1-2.7c1.4,0.3,7.8-0.3,9.9,1c2,1.4-4.1,12.3-4.1,12.3s-14.6,42.2-9.9,42.9c4.8,0.7,27.2-26.9,31-32.7
										c3.7-5.8,5.1-1,8.2,2c3.1,3.1,6.1-1,7.8,1.7s-25.2,33-25.2,33s-20.4,23.8-15,30.6c5.4,6.8,47-23.8,47-23.8
										s9.2-8.5,11.6-8.5s4,4.9,2.7,6.1c-1.3,1.2-31.3,26.9-40.5,39.2c-9.2,12.3-8.2,18.7-8.2,18.7l10.2-2.7l0.3-4.8
										c1.7-5.8,47-51.5,47-55.5C443.6,112.5,435.9,108,435.9,108z"/>
								</g>
								<g>
									<path class="st0" d="M358,192.6c0,0,8.8-28.7,4-28.9c-4.8-0.2-3,4.2-8.6,22.5c-5.6,18.3-13.1,17.7-13.1,17.7l0.6,9.9
										C349.4,212.5,358,192.6,358,192.6z"/>
								</g>
							</g>
							<g>
								<path class="st0" d="M530,194.4c-2.4-26.7-44.7-24.3-44.7-24.3s-12.2,2-13-0.8c-0.8-2.7,4.7-6.7,4.7-6.7s8.2-4.7,2-8.2
									c-6.3-3.5-20.4-3.1-20.4-3.1c0-6.7-8.2-7.1-8.2-7.1s-3.5-7.1-5.1-7.1s-2,4.7-0.8,7.8c1.2,3.1,2,13.3,2,13.3
									s-12.6-9.8-18.8-9.8c-6.3,0-7.5,5.5-7.5,5.5c-13.7,4.3-0.8,19.2-0.8,19.2c-3.1-2.7-15.7-2.4-15.7-2.4
									c-20.4,0-35.7,14.5-38.1,41.2c-2.4,26.7,3.9,45.1,3.9,45.1s2.7,12.6,26.7,13.7c23.9,1.2,38.1-5.9,49.4-7.1
									c11.4-1.2,27.5,6.3,46.3,5.5c18.8-0.8,30.2-26.3,30.2-26.3S532.3,221.1,530,194.4z M453.2,171.5l1.1-9.8
									c0.1-0.9,1-1.6,1.9-1.5c0.9,0.1,1.6,1,1.5,1.9l-1.1,9.8c-0.1,0.9-0.8,1.5-1.7,1.5c-0.1,0-0.1,0-0.2,0
									C453.8,173.3,453.1,172.4,453.2,171.5z M430.6,161.6c0.7-0.6,1.8-0.6,2.4,0.1l8.6,9.6c0.6,0.7,0.6,1.8-0.1,2.4
									c-0.3,0.3-0.7,0.4-1.1,0.4c-0.5,0-0.9-0.2-1.3-0.6l-8.6-9.6C429.9,163.3,429.9,162.2,430.6,161.6z M515.8,218.4
									c-0.8,27.5-4.6,40.9-16.5,43.6c-20.9,4.7-41.6-4.3-41.6-4.3s-4.1-2.7-11.8-2.4c-7.8,0.4-26.7,7.5-26.7,7.5
									s-14.1,6.3-28.6,3.1S373.4,251,373.4,251s-5.5-11.4-5.1-24.7c0,0,1.2-31,13-36.9s20.4-11.4,38.9-7.8
									c18.4,3.5,15.7,12.6,26.7,12.6c11,0,13.7-13,29.8-13.3c16.1-0.4,24.7,3.9,24.7,3.9S516.6,190.9,515.8,218.4z"/>
							</g>
							<g>
								<path class="st0" d="M34.9,275c0,0,102.5-5.2,142.4-5.2s365.7-5.2,365.7-5.2s5.2,3.9,2,18.9c-3.3,15-7.8-13.1-7.8-13.1
									l-495,7.8c0,0-4.6-0.7-5.2,7.2c-0.7,7.8-4.6,16.3,5.9,16.3s18.3-0.7,18.3-0.7s26.8-13.7,37.2-13.7s-12.4,7.2-12.4,7.2
									s-15.7,6.5,3.3,6.5s129.3-0.7,129.3-0.7h137.8l178.3,1.3c0,0,11.8-2,11.8,0.7s-37.9,2.6-37.9,2.6l-336.3,2l-132.6,1.3
									c0,0-10.4,1.3-10.4-10.4S27.8,275.6,34.9,275z"/>
							</g>
							<g>
								<path class="st0" d="M255.9,287.6c0,0,71.2-4.3,88.7-3.2s53.8,2.8,53.8,2.8s21,0.7,21,2.8c0,2.1-41,2.1-41,2.1
									s-33.1-3.2-43.4-2.8c-10.3,0.4-74.1,0.4-74.1,0.4S248.4,289.7,255.9,287.6z"/>
							</g>
						</g>
					</g>
				</g>
			</g>
		</g>
		<g>
			<g>
				<g>
					<g>
						<path class="st0" d="M570.4,149.5c0-25,19.7-43.2,46.6-43.2c26.9,0,46.6,18.2,46.6,43.2s-19.7,43.2-46.6,43.2
							C590.1,192.8,570.4,174.5,570.4,149.5z M635.5,149.5c0-12.8-8.2-20.6-18.5-20.6s-18.5,7.8-18.5,20.6
							c0,12.8,8.2,20.6,18.5,20.6S635.5,162.4,635.5,149.5z"/>
						<path class="st0" d="M709.2,170h-7.6v20.8h-27.9v-82.7h39.8c23,0,37.6,12.1,37.6,31.1c0,12-5.7,20.8-15.6,26l17.3,25.4h-29.7
							L709.2,170z M711.9,129.7h-10.2v19.4h10.2c7.7,0,11.3-3.6,11.3-9.7C723.2,133.3,719.5,129.7,711.9,129.7z"/>
						<path class="st0" d="M778.5,129.8h-24.2v-21.6h76.2v21.6h-24.2v61.1h-27.9L778.5,129.8L778.5,129.8z"/>
						<path class="st0" d="M833.4,149.5c0-25,19.7-43.2,46.6-43.2c26.9,0,46.6,18.2,46.6,43.2s-19.7,43.2-46.6,43.2
							C853,192.8,833.4,174.5,833.4,149.5z M898.5,149.5c0-12.8-8.2-20.6-18.5-20.6s-18.5,7.8-18.5,20.6c0,12.8,8.2,20.6,18.5,20.6
							C890.2,170.2,898.5,162.4,898.5,149.5z"/>
						<path class="st0" d="M1018.2,168.1c0,14.4-12.2,22.8-35,22.8h-46.5v-82.7h44.2c22.8,0,33.5,9.1,33.5,21.6
							c0,7.7-3.8,14-11.4,17.9C1012.6,151.2,1018.2,158.2,1018.2,168.1z M964.1,127.7V140h12.9c6.3,0,9.1-2.1,9.1-6.1
							s-2.9-6.1-9.1-6.1H964.1L964.1,127.7z M990.1,164.9c0-4.3-3.1-6.5-9.2-6.5h-16.8v12.9h16.8C987,171.4,990.1,169.1,990.1,164.9
							z"/>
						<path class="st0" d="M1028.1,108.2h27.9v82.7h-27.9V108.2L1028.1,108.2z"/>
						<path class="st0" d="M1066,149.5c0-25,19.7-43.2,46.6-43.2c26.9,0,46.6,18.2,46.6,43.2s-19.7,43.2-46.6,43.2
							C1085.8,192.8,1066,174.5,1066,149.5z M1131.3,149.5c0-12.8-8.2-20.6-18.5-20.6s-18.5,7.8-18.5,20.6
							c0,12.8,8.2,20.6,18.5,20.6S1131.3,162.4,1131.3,149.5z"/>
					</g>
					<g>
						<path class="st0" d="M651.9,276.8c0,14.4-12.2,22.8-35,22.8h-46.5v-82.7h44.2c22.8,0,33.5,9.1,33.5,21.6
							c0,7.7-3.9,14-11.4,17.9C646.2,259.9,651.9,266.9,651.9,276.8z M597.8,236.4v12.3h12.9c6.3,0,9.1-2.1,9.1-6.1
							c0-4.1-2.9-6.1-9.1-6.1H597.8z M623.8,273.6c0-4.3-3.1-6.5-9.2-6.5h-16.8v12.9h16.8C620.7,280.1,623.8,277.9,623.8,273.6z"/>
						<path class="st0" d="M697,278.7h-7.6v20.8h-27.9v-82.7h39.8c23,0,37.6,12.1,37.6,31.1c0,12-5.7,20.8-15.6,26l17.3,25.4h-29.7
							L697,278.7z M699.7,238.4h-10.2v19.4h10.2c7.7,0,11.3-3.6,11.3-9.7C711.1,242,707.4,238.4,699.7,238.4z"/>
						<path class="st0" d="M746.3,258.2c0-25,19.7-43.2,46.6-43.2c26.9,0,46.6,18.2,46.6,43.2s-19.6,43.2-46.5,43.2
							C766,301.4,746.3,283.2,746.3,258.2z M811.6,258.2c0-12.8-8.2-20.6-18.5-20.6s-18.5,7.8-18.5,20.6s8.2,20.6,18.5,20.6
							C803.2,278.9,811.6,271.1,811.6,258.2z"/>
						<path class="st0" d="M904.5,255.9h24.2v35c-10,6.8-23.9,10.5-36,10.5c-26.7,0-46.2-17.9-46.2-43.2s19.5-43.2,46.7-43.2
							c16.3,0,29.4,5.7,37.8,15.9l-17.9,15.7c-5.2-6-11.2-9.1-18.5-9.1c-12.3,0-20.1,7.9-20.1,20.6c0,12.4,7.8,20.6,19.7,20.6
							c3.4,0,6.7-0.5,10.2-2L904.5,255.9L904.5,255.9z"/>
						<path class="st0" d="M995.3,255.9h24.2v35c-10,6.8-23.9,10.5-36,10.5c-26.7,0-46.2-17.9-46.2-43.2s19.5-43.2,46.7-43.2
							c16.3,0,29.4,5.7,37.8,15.9l-18,15.7c-5.2-6-11.2-9.1-18.5-9.1c-12.3,0-20.1,7.9-20.1,20.6c0,12.4,7.8,20.6,19.7,20.6
							c3.4,0,6.7-0.5,10.2-2V255.9L995.3,255.9z"/>
						<path class="st0" d="M1031.4,216.9h27.9v82.7h-27.9V216.9L1031.4,216.9z"/>
						<path class="st0" d="M1154.2,216.9v82.7h-22.9l-31.5-37.6v37.5h-27.2v-82.7h22.9l31.4,37.5v-37.5h27.3V216.9z"/>
						<path class="st0" d="M1167.6,216.9h27.9v82.7h-27.9V216.9z"/>
					</g>
				</g>
			</g>
		</g>
	</g>
	<text transform="matrix(1 0 0 1 37.813 380.5244)" class="st1 st2 st3">Di Camilla e Massimo Crugnola</text>
</g>
</svg>
